<?xml version="1.0" standalone="no"?>
<!DOCTYPE svg PUBLIC "-//W3C//DTD SVG 20010904//EN"
 "http://www.w3.org/TR/2001/REC-SVG-20010904/DTD/svg10.dtd">
<svg version="1.0" xmlns="http://www.w3.org/2000/svg"
 width="700.000000pt" height="700.000000pt" viewBox="0 0 700.000000 700.000000"
 preserveAspectRatio="xMidYMid meet">
<metadata>
Created by potrace 1.14, written by Peter Selinger 2001-2017
</metadata>
<g transform="translate(0.000000,700.000000) scale(0.100000,-0.100000)"
fill="#000000" stroke="none">
<path d="M3290 5714 c-567 -42 -1011 -266 -1255 -634 -109 -164 -169 -321
-200 -525 -76 -509 145 -937 640 -1238 200 -121 394 -208 845 -377 497 -187
690 -292 690 -376 0 -41 -46 -82 -118 -105 -83 -27 -313 -37 -460 -20 -314 37
-644 153 -912 321 -127 80 -190 130 -363 294 -88 82 -162 145 -166 140 -7 -8
-626 -922 -644 -950 -8 -14 214 -242 315 -321 482 -381 1220 -626 1958 -650
563 -18 1028 133 1334 432 222 217 346 478 376 794 40 415 -132 787 -484 1045
-225 165 -418 258 -991 476 -428 163 -576 231 -662 305 -48 40 -53 65 -28 119
61 127 436 153 811 56 301 -78 528 -191 819 -407 88 -65 165 -122 172 -126 8
-5 110 150 304 460 160 258 298 478 306 489 13 20 7 27 -119 129 -73 59 -180
138 -237 176 -372 247 -910 426 -1434 478 -123 12 -415 21 -497 15z"/>
</g>
</svg>
