<?xml version="1.0" standalone="no"?>
<!DOCTYPE svg PUBLIC "-//W3C//DTD SVG 20010904//EN"
 "http://www.w3.org/TR/2001/REC-SVG-20010904/DTD/svg10.dtd">
<svg version="1.0" xmlns="http://www.w3.org/2000/svg"
 width="700.000000pt" height="700.000000pt" viewBox="0 0 700.000000 700.000000"
 preserveAspectRatio="xMidYMid meet">
<metadata>
Created by potrace 1.14, written by Peter Selinger 2001-2017
</metadata>
<g transform="translate(0.000000,700.000000) scale(0.100000,-0.100000)"
fill="#000000" stroke="none">
<path d="M3207 5710 c-583 -62 -1031 -331 -1246 -750 -93 -181 -130 -328 -138
-550 -11 -300 56 -506 242 -745 108 -139 221 -235 414 -353 208 -126 369 -198
859 -382 263 -99 475 -191 550 -239 26 -16 65 -48 86 -70 39 -40 39 -40 25
-78 -27 -72 -159 -113 -364 -113 -339 0 -712 103 -1029 282 -154 87 -277 181
-447 342 l-163 155 -35 -52 c-19 -29 -167 -247 -328 -486 -161 -238 -293 -437
-293 -441 0 -12 272 -273 336 -322 497 -381 1223 -617 1950 -635 404 -10 675
40 963 178 383 183 651 519 726 911 96 504 -94 936 -545 1238 -206 137 -427
238 -995 454 -379 144 -569 237 -611 301 -19 30 -5 91 29 123 29 28 113 58
198 71 187 31 492 -11 759 -104 231 -81 410 -180 660 -366 134 -99 165 -118
175 -107 11 11 526 832 587 935 l19 32 -116 94 c-156 127 -249 193 -380 268
-340 195 -764 331 -1213 390 -179 23 -536 33 -675 19z"/>
</g>
</svg>
