<?xml version="1.0" standalone="no"?>
<!DOCTYPE svg PUBLIC "-//W3C//DTD SVG 20010904//EN"
 "http://www.w3.org/TR/2001/REC-SVG-20010904/DTD/svg10.dtd">
<svg version="1.0" xmlns="http://www.w3.org/2000/svg"
 width="700.000000pt" height="700.000000pt" viewBox="0 0 700.000000 700.000000"
 preserveAspectRatio="xMidYMid meet">
<metadata>
Created by potrace 1.14, written by Peter Selinger 2001-2017
</metadata>
<g transform="translate(0.000000,700.000000) scale(0.100000,-0.100000)"
fill="#000000" stroke="none">
<path d="M3220 5710 c-746 -77 -1243 -467 -1376 -1080 -9 -41 -18 -141 -21
-221 -9 -237 32 -411 138 -589 116 -196 237 -321 438 -455 230 -152 421 -241
916 -425 387 -145 555 -224 641 -303 58 -53 62 -63 39 -107 -65 -126 -514
-134 -921 -16 -219 63 -471 185 -657 317 -48 34 -161 131 -250 215 -89 85
-165 154 -169 154 -5 0 -554 -805 -643 -943 l-18 -28 99 -100 c264 -267 551
-453 929 -602 583 -230 1309 -317 1805 -217 308 63 596 207 786 395 238 235
362 512 381 850 18 331 -96 618 -341 861 -215 213 -512 372 -1109 594 -146 54
-413 161 -510 204 -77 34 -194 112 -214 143 -13 20 -14 30 -5 62 15 49 47 77
114 101 259 91 719 19 1118 -176 154 -75 249 -135 441 -280 118 -88 143 -104
154 -93 28 30 604 963 599 970 -11 18 -270 220 -348 272 -373 248 -872 421
-1386 482 -161 19 -511 27 -630 15z"/>
</g>
</svg>
