<?xml version="1.0" standalone="no"?>
<!DOCTYPE svg PUBLIC "-//W3C//DTD SVG 20010904//EN"
 "http://www.w3.org/TR/2001/REC-SVG-20010904/DTD/svg10.dtd">
<svg version="1.0" xmlns="http://www.w3.org/2000/svg"
 width="700.000000pt" height="700.000000pt" viewBox="0 0 700.000000 700.000000"
 preserveAspectRatio="xMidYMid meet">
<metadata>
Created by potrace 1.14, written by Peter Selinger 2001-2017
</metadata>
<g transform="translate(0.000000,700.000000) scale(0.100000,-0.100000)"
fill="#000000" stroke="none">
<path d="M3215 5710 c-313 -33 -612 -134 -845 -288 -161 -106 -328 -298 -419
-480 -158 -316 -173 -753 -36 -1037 95 -198 265 -393 455 -521 233 -158 425
-249 905 -429 406 -152 555 -219 656 -295 75 -55 88 -79 66 -125 -71 -148
-601 -139 -1047 18 -211 75 -489 231 -637 358 -35 30 -119 108 -188 173 -75
71 -129 116 -135 110 -5 -5 -153 -222 -329 -483 l-320 -474 28 -36 c43 -53
216 -218 297 -283 353 -281 876 -498 1424 -592 253 -44 343 -51 620 -51 229 0
282 3 387 22 369 67 655 204 868 418 139 139 247 310 305 483 184 554 0 1070
-498 1400 -211 139 -422 237 -887 412 -463 174 -676 277 -722 347 -13 20 -14
30 -4 63 15 52 58 85 144 112 63 20 92 23 237 22 244 -1 421 -36 669 -131 228
-87 372 -170 622 -359 117 -88 143 -104 154 -93 9 10 547 869 599 956 8 15
-247 221 -387 311 -359 232 -847 396 -1362 457 -159 19 -498 27 -620 15z"/>
</g>
</svg>
