<svg xmlns="http://www.w3.org/2000/svg" data-name="Layer 8" viewBox="0 0 24 24" id="painting"><path d="M21.363,2.639a2.163,2.163,0,0,0-2.9-.157L12,7.581a1.007,1.007,0,0,0-.087.078,3.106,3.106,0,0,0-.9,2.045c-0.095-.007-0.187-0.028-0.283-0.028h0a3.751,3.751,0,0,0-2.71,1.154C6.863,12.024,4.962,15.91,6.7,17.7a1,1,0,0,0,1.154.2,4.874,4.874,0,0,1,2.388-.444,3.9,3.9,0,0,0,3.206-1.127,3.951,3.951,0,0,0,1.047-3.363,3.094,3.094,0,0,0,1.851-.881A0.926,0.926,0,0,0,16.418,12l5.09-6.442A2.168,2.168,0,0,0,21.363,2.639Zm-9.355,12.3a2,2,0,0,1-1.771.52,7.585,7.585,0,0,0-2.251.254,6.494,6.494,0,0,1,1.474-3.488,1.765,1.765,0,0,1,1.274-.546h0a1.763,1.763,0,0,1,1.273.546A1.961,1.961,0,0,1,12.008,14.935ZM19.95,4.3l-5.06,6.4a1.155,1.155,0,0,1-1.561-.035A1.131,1.131,0,0,1,13.3,9.108L19.713,4.04a0.174,0.174,0,0,1,.235.012A0.18,0.18,0,0,1,19.95,4.3Z"></path><path d="M19,11a1,1,0,0,0-1,1v5a3,3,0,0,1-3,3H7a3,3,0,0,1-3-3V9A3,3,0,0,1,7,6h5a1,1,0,0,0,0-2H7A5.006,5.006,0,0,0,2,9v8a5.006,5.006,0,0,0,5,5h8a5.006,5.006,0,0,0,5-5V12A1,1,0,0,0,19,11Z"></path></svg>