<?xml version="1.0" standalone="no"?>
<!DOCTYPE svg PUBLIC "-//W3C//DTD SVG 20010904//EN"
 "http://www.w3.org/TR/2001/REC-SVG-20010904/DTD/svg10.dtd">
<svg version="1.0" xmlns="http://www.w3.org/2000/svg"
 width="700.000000pt" height="700.000000pt" viewBox="0 0 700.000000 700.000000"
 preserveAspectRatio="xMidYMid meet">
<metadata>
Created by potrace 1.14, written by Peter Selinger 2001-2017
</metadata>
<g transform="translate(0.000000,700.000000) scale(0.100000,-0.100000)"
fill="#000000" stroke="none">
<path d="M1590 6989 c-842 -97 -1487 -747 -1579 -1591 -15 -135 -15 -3661 0
-3796 78 -719 564 -1312 1244 -1521 279 -85 214 -83 2320 -79 l1850 3 113 23
c793 158 1365 778 1451 1574 15 135 15 3662 0 3796 -59 541 -339 1005 -789
1306 -181 121 -428 221 -662 268 l-113 23 -1880 1 c-1034 1 -1914 -2 -1955 -7z
m2197 -1290 c524 -52 1062 -231 1434 -478 57 -38 164 -117 237 -176 126 -102
132 -109 119 -129 -8 -11 -146 -231 -306 -489 -194 -310 -296 -465 -304 -460
-7 4 -84 61 -172 126 -291 216 -518 329 -819 407 -375 97 -750 71 -811 -56
-25 -54 -20 -79 28 -119 86 -74 234 -142 662 -305 573 -218 766 -311 991 -476
218 -160 381 -384 448 -617 70 -242 49 -563 -53 -802 -242 -569 -829 -877
-1621 -852 -738 24 -1476 269 -1958 650 -101 79 -323 307 -315 321 18 28 637
942 644 950 4 5 78 -58 166 -140 173 -164 236 -214 363 -294 268 -168 598
-284 912 -321 147 -17 377 -7 460 20 72 23 118 64 118 105 0 84 -193 189 -690
376 -550 207 -787 321 -1010 488 -256 192 -432 471 -475 752 -48 311 25 637
200 900 244 368 688 592 1255 634 82 6 374 -3 497 -15z"/>
</g>
</svg>
