<?xml version="1.0" standalone="no"?>
<!DOCTYPE svg PUBLIC "-//W3C//DTD SVG 20010904//EN"
 "http://www.w3.org/TR/2001/REC-SVG-20010904/DTD/svg10.dtd">
<svg version="1.0" xmlns="http://www.w3.org/2000/svg"
 width="700.000000pt" height="700.000000pt" viewBox="0 0 700.000000 700.000000"
 preserveAspectRatio="xMidYMid meet">
<metadata>
Created by potrace 1.14, written by Peter Selinger 2001-2017
</metadata>
<g transform="translate(0.000000,700.000000) scale(0.100000,-0.100000)"
fill="#000000" stroke="none">
<path d="M3275 5713 c-431 -28 -838 -194 -1086 -442 -177 -177 -291 -393 -345
-651 -26 -120 -26 -383 -1 -500 60 -277 263 -559 530 -739 240 -159 421 -245
931 -436 395 -148 577 -233 660 -309 44 -41 48 -48 42 -77 -8 -41 -21 -56 -68
-80 -66 -34 -156 -49 -293 -49 -312 0 -624 74 -920 219 -216 106 -352 203
-553 391 -98 92 -177 159 -182 154 -4 -5 -152 -222 -329 -483 l-320 -474 72
-80 c354 -392 901 -674 1582 -813 324 -66 729 -91 993 -60 449 52 822 234
1050 510 183 221 279 462 298 751 25 383 -148 742 -477 990 -217 163 -434 270
-924 455 -311 117 -583 231 -651 271 -31 19 -75 51 -97 71 -36 34 -39 40 -33
75 10 55 59 97 148 125 65 20 93 23 243 22 294 -1 546 -63 860 -214 126 -61
209 -114 410 -262 87 -65 162 -115 166 -110 6 6 509 806 587 933 l22 37 -126
103 c-182 147 -325 240 -519 335 -395 193 -806 300 -1280 334 -132 9 -279 10
-390 3z"/>
</g>
</svg>
