<?xml version="1.0" standalone="no"?>
<!DOCTYPE svg PUBLIC "-//W3C//DTD SVG 20010904//EN"
 "http://www.w3.org/TR/2001/REC-SVG-20010904/DTD/svg10.dtd">
<svg version="1.0" xmlns="http://www.w3.org/2000/svg"
 width="700.000000pt" height="700.000000pt" viewBox="0 0 700.000000 700.000000"
 preserveAspectRatio="xMidYMid meet">
<metadata>
Created by potrace 1.14, written by Peter Selinger 2001-2017
</metadata>
<g transform="translate(0.000000,700.000000) scale(0.100000,-0.100000)"
fill="#000000" stroke="none">
<path d="M1629 6996 c-2 -2 -31 -7 -64 -10 -261 -29 -547 -137 -775 -291 -119
-80 -134 -92 -238 -190 -293 -276 -492 -674 -540 -1080 -4 -33 -7 -910 -7
-1950 0 -1994 -2 -1898 39 -2080 117 -529 472 -977 962 -1215 175 -85 387
-147 570 -167 89 -10 3758 -10 3845 -1 194 22 403 84 583 173 513 251 877 741
971 1303 4 23 9 54 13 70 10 47 11 3792 1 3862 -39 275 -118 506 -245 717
-254 421 -682 725 -1156 823 -51 10 -109 22 -128 26 -35 8 -3823 18 -3831 10z"/>
</g>
</svg>
