<?xml version="1.0" standalone="no"?>
<!DOCTYPE svg PUBLIC "-//W3C//DTD SVG 20010904//EN"
 "http://www.w3.org/TR/2001/REC-SVG-20010904/DTD/svg10.dtd">
<svg version="1.0" xmlns="http://www.w3.org/2000/svg"
 width="700.000000pt" height="700.000000pt" viewBox="0 0 700.000000 700.000000"
 preserveAspectRatio="xMidYMid meet">
<metadata>
Created by potrace 1.14, written by Peter Selinger 2001-2017
</metadata>
<g transform="translate(0.000000,700.000000) scale(0.100000,-0.100000)"
fill="#000000" stroke="none">
<path d="M3226 5709 c-418 -40 -800 -201 -1037 -438 -230 -231 -353 -518 -366
-861 -8 -206 24 -364 104 -525 204 -405 533 -629 1383 -942 359 -132 573 -233
654 -307 44 -41 48 -48 42 -77 -8 -41 -21 -56 -68 -80 -66 -34 -156 -49 -293
-49 -313 0 -632 76 -925 221 -212 105 -348 202 -548 389 -96 90 -177 159 -182
154 -4 -5 -152 -222 -329 -483 l-320 -474 70 -78 c436 -484 1189 -807 2044
-879 434 -36 814 21 1131 169 372 175 646 514 723 896 95 477 -61 895 -442
1184 -214 161 -435 273 -871 438 -573 216 -725 284 -806 362 -44 42 -49 65
-24 117 32 67 180 114 361 114 193 0 444 -46 638 -118 244 -90 396 -175 634
-352 86 -63 161 -119 168 -123 7 -5 114 157 310 470 165 263 303 483 306 490
9 14 -215 196 -363 295 -357 237 -882 416 -1390 473 -180 20 -473 27 -604 14z"/>
</g>
</svg>
