<svg width="44" height="45" viewBox="0 0 44 45" fill="none" xmlns="http://www.w3.org/2000/svg">
<rect y="1" width="44" height="44" rx="22" fill="#ED93DF" fill-opacity="0.77"/>
<path d="M19.992 26.648C19.992 25.76 20.136 24.98 20.424 24.308C20.712 23.636 21.084 23.036 21.54 22.508C21.996 21.98 22.476 21.488 22.98 21.032C23.508 20.576 24 20.132 24.456 19.7C24.912 19.268 25.284 18.812 25.572 18.332C25.86 17.852 26.004 17.312 26.004 16.712C26.004 15.704 25.596 14.888 24.78 14.264C23.964 13.64 22.872 13.328 21.504 13.328C20.184 13.328 19.032 13.568 18.048 14.048C17.088 14.528 16.284 15.212 15.636 16.1L12.144 13.832C13.152 12.464 14.472 11.396 16.104 10.628C17.736 9.836 19.668 9.44 21.9 9.44C23.652 9.44 25.188 9.704 26.508 10.232C27.828 10.736 28.86 11.48 29.604 12.464C30.348 13.424 30.72 14.6 30.72 15.992C30.72 16.952 30.564 17.792 30.252 18.512C29.964 19.232 29.58 19.868 29.1 20.42C28.644 20.948 28.152 21.452 27.624 21.932C27.096 22.388 26.592 22.844 26.112 23.3C25.656 23.756 25.284 24.248 24.996 24.776C24.708 25.304 24.564 25.928 24.564 26.648H19.992ZM22.296 35.252C21.456 35.252 20.76 34.976 20.208 34.424C19.68 33.872 19.416 33.212 19.416 32.444C19.416 31.676 19.68 31.028 20.208 30.5C20.76 29.948 21.456 29.672 22.296 29.672C23.136 29.672 23.82 29.948 24.348 30.5C24.876 31.028 25.14 31.676 25.14 32.444C25.14 33.212 24.876 33.872 24.348 34.424C23.82 34.976 23.136 35.252 22.296 35.252Z" fill="black" fill-opacity="0.85"/>
</svg>